<?xml version="1.0" encoding="UTF-8"?>
<!DOCTYPE svg PUBLIC "-//W3C//DTD SVG 1.1//EN" "http://www.w3.org/Graphics/SVG/1.1/DTD/svg11.dtd">
<svg xmlns="http://www.w3.org/2000/svg" xml:space="preserve" width="73.4316mm" height="73.2432mm" version="1.1" style="shape-rendering:geometricPrecision; text-rendering:geometricPrecision; image-rendering:optimizeQuality; fill-rule:evenodd; clip-rule:evenodd" viewBox="0 0 7524 7505" xmlns:xlink="http://www.w3.org/1999/xlink"><defs><style type="text/css"><![CDATA[.str0 {stroke:#E2671F;stroke-width:153.695}.fil0 {fill:none}.fil1 {fill:#ED731D}.fil3 {fill:#ED731D;fill-rule:nonzero}.fil2 {fill:#2B2A29;fill-rule:nonzero}]]></style></defs><g><g><path id="Кривая_x0020_" class="fil0 str0" d="M2114 3751c156,-156 290,-335 427,-511 27,-221 59,-442 59,-662 221,0 442,-32 664,-60 175,-137 353,-270 509,-426 157,156 336,290 512,427 220,27 441,59 662,59 0,221 31,442 58,663 137,175 271,354 428,510 -156,156 -290,334 -427,509 -27,222 -59,443 -59,664 -221,0 -442,32 -663,59 -175,137 -354,271 -511,427 -156,-156 -335,-290 -510,-426 -221,-28 -442,-60 -663,-60 0,-221 -32,-442 -60,-663 -136,-175 -270,-354 -426,-510z"/><g><g><circle class="fil1" cx="3789" cy="327" r="327"/><polygon class="fil1" points="3351,1314 3303,1237 2812,810 3794,810 4776,810 4285,1237 4204,1343 4204,1651 4204,2049 3950,1850 3775,1687 3606,1846 3351,2045 3351,1647 "/></g><g><circle class="fil1" transform="matrix(2.64845E-014 -1 1 2.64845E-014 326.857 3735.84)" r="327"/><polygon class="fil1" points="1314,4174 1237,4222 810,4713 810,3731 810,2749 1237,3240 1343,3321 1651,3321 2049,3321 1850,3576 1687,3750 1846,3920 2045,4174 1647,4174 "/></g><g><circle class="fil1" transform="matrix(2.64845E-014 1 -1 2.64845E-014 7197.17 3763.34)" r="327"/><polygon class="fil1" points="6210,3325 6287,3277 6714,2786 6714,3768 6714,4750 6287,4259 6181,4178 5873,4178 5475,4178 5674,3924 5837,3749 5678,3580 5479,3325 5877,3325 "/></g><g><circle class="fil1" cx="3761" cy="7178" r="327"/><polygon class="fil1" points="4199,6191 4247,6268 4738,6694 3756,6694 2774,6694 3265,6268 3346,6162 3346,5854 3346,5455 3600,5655 3775,5818 3944,5659 4199,5459 4199,5858 "/></g></g><g><g><circle class="fil1" transform="matrix(0.707107 -0.707107 0.707107 0.707107 1359.17 1310.81)" r="327"/><polygon class="fil1" points="1748,2319 1659,2298 1010,2344 1704,1649 2399,955 2353,1604 2371,1736 2588,1954 2870,2236 2550,2275 2311,2283 2303,2515 2265,2836 1983,2554 "/></g><g><circle class="fil1" transform="matrix(-0.707107 -0.707107 0.707107 -0.707107 1321.31 6169.71)" r="327"/><polygon class="fil1" points="2329,5781 2308,5870 2354,6519 1660,5824 965,5130 1614,5176 1747,5158 1964,4941 2246,4659 2285,4979 2293,5218 2525,5225 2846,5264 2564,5546 "/></g><g><circle class="fil1" transform="matrix(0.707107 0.707107 -0.707107 0.707107 6198.8 1331.1)" r="327"/><polygon class="fil1" points="5191,1720 5212,1631 5166,982 5860,1676 6555,2371 5906,2325 5773,2343 5556,2560 5274,2842 5235,2521 5227,2283 4995,2275 4674,2237 4956,1955 "/></g><g><circle class="fil1" transform="matrix(-0.707107 0.707107 -0.707107 -0.707107 6183.24 6175.53)" r="327"/><polygon class="fil1" points="5795,5168 5884,5188 6532,5143 5838,5837 5144,6531 5189,5883 5172,5750 4954,5533 4672,5251 4993,5212 5231,5204 5239,4971 5278,4651 5560,4933 "/></g></g><path class="fil2" d="M3293 4145c0,10 2,18 6,24 4,7 9,12 16,16 7,4 14,8 23,10 9,3 18,5 27,8 13,3 26,6 38,10 13,4 24,9 33,16 10,6 18,15 24,26 6,11 9,24 9,41 0,17 -3,32 -10,45 -6,12 -15,22 -27,30 -11,8 -25,14 -41,18 -15,4 -32,6 -51,6 -9,0 -17,-1 -26,-2 -9,-1 -18,-2 -26,-4 -8,-2 -16,-4 -22,-6 -7,-3 -12,-5 -16,-7l0 -37c6,3 13,6 20,8 8,3 15,5 23,6 8,2 16,3 24,4 8,1 16,2 23,2 12,0 23,-1 33,-3 10,-2 20,-5 28,-10 7,-5 14,-11 18,-19 5,-8 7,-18 7,-30 0,-10 -2,-18 -6,-24 -4,-7 -9,-12 -16,-16 -7,-4 -14,-8 -23,-11 -9,-2 -18,-5 -28,-7 -13,-3 -25,-6 -38,-10 -12,-4 -23,-9 -32,-15 -10,-7 -18,-15 -24,-26 -5,-10 -8,-24 -8,-40 0,-16 3,-31 9,-43 6,-12 14,-22 25,-30 10,-8 22,-14 36,-18 14,-3 28,-5 44,-5 17,0 34,1 49,5 15,3 29,8 42,13l0 37c-14,-5 -28,-10 -42,-14 -15,-3 -31,-5 -47,-5 -13,0 -24,1 -33,4 -9,2 -17,6 -23,11 -6,5 -10,11 -13,19 -3,7 -5,15 -5,23z"/><path id="1" class="fil2" d="M3673 4363l-1 0c-4,4 -7,8 -12,12 -5,3 -11,7 -17,10 -6,3 -13,5 -20,7 -8,2 -16,3 -24,3 -12,0 -22,-2 -31,-5 -10,-4 -18,-9 -25,-15 -7,-7 -12,-15 -16,-24 -4,-9 -6,-20 -6,-32 0,-11 2,-22 7,-31 4,-9 10,-17 17,-23 8,-7 17,-12 28,-15 10,-4 22,-5 35,-5 12,0 23,1 34,3 10,2 19,4 28,7l1 0 0 -16c0,-7 -1,-12 -2,-17 0,-5 -2,-10 -4,-13 -4,-8 -11,-15 -20,-20 -10,-5 -22,-8 -38,-8 -12,0 -23,1 -34,3 -10,3 -21,6 -31,9l0 -31c4,-2 8,-4 14,-6 5,-2 11,-3 17,-4 6,-2 12,-3 19,-3 6,-1 13,-1 19,-1 24,0 43,4 58,12 16,9 26,20 33,34 3,5 4,11 5,17 2,7 2,14 2,21l0 157 -32 0 -4 -26zm-2 -77c-8,-2 -16,-4 -26,-6 -9,-2 -20,-3 -32,-3 -16,0 -29,3 -38,10 -9,7 -14,18 -14,32 0,8 1,14 4,19 2,6 5,10 9,14 4,3 9,6 15,8 5,2 11,2 17,2 8,0 16,-1 23,-3 7,-3 14,-5 19,-9 6,-3 10,-6 14,-10 4,-3 7,-5 9,-7l0 -47z"/><polygon id="2" class="fil2" points="3785,4389 3785,4031 3824,4031 3824,4389 "/><path id="3" class="fil2" d="M3992 4181c-9,0 -18,2 -25,5 -8,3 -15,8 -20,14 -6,6 -10,13 -14,21 -3,8 -6,16 -7,26l121 0c0,-10 -1,-18 -4,-26 -2,-8 -6,-15 -10,-21 -5,-6 -11,-11 -18,-14 -7,-4 -14,-5 -23,-5zm19 180c13,0 25,-1 35,-3 11,-2 21,-5 31,-8l0 31c-8,5 -18,8 -31,10 -12,3 -25,4 -39,4 -17,0 -33,-2 -48,-7 -15,-4 -27,-11 -38,-20 -11,-10 -19,-22 -25,-38 -6,-15 -10,-34 -10,-55 0,-22 3,-40 9,-56 6,-16 14,-29 24,-40 10,-10 21,-18 34,-23 13,-6 26,-8 40,-8 14,0 26,2 37,6 12,5 22,12 30,21 8,9 15,22 20,36 5,15 7,33 7,54 0,2 0,3 0,5 0,1 0,4 0,9l-162 0c0,15 2,28 6,38 5,11 11,19 19,26 8,6 17,11 27,14 11,3 22,4 34,4z"/><path id="4" class="fil2" d="M4179 4217c0,6 2,11 4,15 3,4 7,8 11,10 5,3 10,5 16,7 6,1 13,3 19,4 9,2 17,4 25,7 8,2 16,6 22,10 7,5 12,12 17,20 4,8 6,18 6,31 0,12 -3,23 -7,32 -5,9 -11,17 -20,23 -8,6 -18,11 -30,14 -12,3 -25,5 -39,5 -8,0 -16,-1 -23,-2 -7,0 -13,-2 -19,-3 -5,-1 -10,-3 -13,-4 -4,-2 -7,-3 -10,-4l0 -32c10,4 20,7 29,9 10,2 20,3 32,3 9,0 17,0 24,-2 8,-2 14,-4 19,-7 6,-4 10,-8 12,-13 3,-4 5,-10 5,-17 0,-6 -2,-12 -4,-16 -3,-4 -6,-8 -11,-10 -4,-3 -9,-6 -15,-7 -6,-2 -12,-4 -18,-5 -8,-2 -17,-4 -25,-7 -9,-2 -16,-6 -23,-10 -7,-5 -13,-11 -17,-18 -5,-8 -7,-18 -7,-30 0,-12 2,-23 7,-32 4,-9 10,-16 18,-22 8,-6 16,-11 27,-14 10,-3 20,-4 31,-4 14,0 26,1 37,3 11,3 21,6 30,10l0 32c-10,-4 -19,-7 -29,-9 -10,-2 -20,-4 -31,-4 -9,0 -16,1 -23,3 -6,2 -11,4 -15,8 -4,3 -7,7 -9,11 -2,4 -3,9 -3,15z"/><path class="fil3" d="M3354 3517c0,24 -5,47 -16,67 -11,20 -30,38 -55,51l0 2c14,5 27,11 39,18 11,8 22,17 30,27 8,10 15,22 20,35 5,13 7,27 7,43 0,14 -2,29 -6,45 -5,16 -12,31 -23,46 -12,15 -26,28 -45,41 -18,12 -41,22 -69,29 -7,2 -15,3 -23,5 -9,1 -18,2 -28,4 -10,1 -22,1 -34,2 -13,0 -27,0 -42,0l-165 0 0 -566 197 0c42,0 76,4 101,12 20,7 36,15 50,25 14,10 26,21 35,33 9,13 16,25 21,39 4,14 6,28 6,42zm-306 169l0 160 68 0c18,0 33,-1 46,-2 13,-1 24,-3 34,-5 14,-3 26,-7 36,-12 9,-5 17,-11 23,-18 6,-7 10,-14 13,-22 2,-8 4,-17 4,-26 0,-16 -5,-29 -13,-41 -9,-12 -23,-21 -42,-27 -8,-2 -17,-4 -28,-5 -11,-2 -26,-2 -43,-2l-98 0zm93 -87c28,0 49,-3 63,-8 16,-7 27,-16 33,-27 7,-12 10,-25 10,-39 0,-15 -3,-28 -11,-40 -8,-12 -21,-20 -39,-26 -8,-2 -16,-4 -27,-5 -10,-1 -22,-1 -37,-1l-85 0 0 146 93 0z"/><path id="1" class="fil3" d="M3776 3780c12,-44 27,-92 46,-143l98 -271 145 0 0 566 -104 0 0 -287c0,-42 2,-91 5,-146l-3 0c-5,16 -11,34 -17,54 -7,20 -14,40 -21,59l-117 320 -67 0 -117 -320c-7,-19 -14,-39 -20,-59 -7,-20 -12,-38 -17,-54l-4 0c4,52 5,101 5,146l0 287 -104 0 0 -566 145 0 98 269c16,45 32,94 46,145l3 0z"/><path id="2" class="fil3" d="M4477 3442c-28,0 -54,5 -78,14 -24,9 -44,23 -61,41 -17,18 -31,40 -40,66 -10,26 -15,56 -15,89 0,34 5,63 14,88 8,26 21,47 37,64 17,17 37,30 60,38 24,9 50,13 80,13 22,0 44,-2 66,-5 22,-3 43,-8 63,-14l0 89c-20,5 -41,10 -64,13 -23,3 -47,5 -71,5 -48,0 -91,-7 -127,-21 -36,-14 -67,-33 -91,-58 -25,-25 -43,-55 -56,-90 -12,-35 -18,-73 -18,-115 0,-44 6,-84 20,-121 13,-37 32,-69 57,-96 24,-27 55,-48 92,-64 38,-15 80,-23 126,-24 24,0 47,2 69,5 21,4 40,8 58,14l0 87c-23,-6 -44,-11 -64,-14 -19,-3 -38,-4 -57,-4z"/></g></g></svg>